<svg width="142" height="142" xmlns="http://www.w3.org/2000/svg"><g transform="matrix(.99074 0 0 .99074 179.484 1.23)"><path d="M-109.166 7.227a2 2 0 0 0-.406.047c-3.195.029-6.176 1.694-7.785 4.482l-31.25 54.127-31.25 54.127h.002c-3.42 5.922 1.017 13.609 7.855 13.609H-46.998c6.839 0 11.277-7.687 7.857-13.609l-31.25-54.127-31.252-54.127c-1.465-2.539-4.079-4.163-6.979-4.449a2 2 0 0 0-.445-.078h-.004l-.094-.002z"/><path d="M-46.997 124.547H-172l31.251-54.128 31.251-54.128 31.251 54.128z" fill="#fc0"/><circle r="8.817" cy="111.117" cx="-109.498"/><path d="M-109.498 42.955a8.82 8.82 0 0 0-8.818 8.816l3.156 37.461a5.662 5.662 0 0 0 11.324 0l3.154-37.461a8.82 8.82 0 0 0-8.816-8.816z"/></g></svg>